<svg width="1440" height="660" viewBox="0 0 1440 660" fill="none" xmlns="http://www.w3.org/2000/svg">
<g clip-path="url(#clip0_2002_1517)">
<g filter="url(#filter0_f_2002_1517)">
<path d="M1672.95 390.664C1593.21 606.666 1007.31 589.352 364.289 351.992C-278.73 114.632 -735.363 -252.891 -655.629 -468.893C-575.895 -684.895 10.0114 -667.582 653.03 -430.221C1296.05 -192.861 1752.68 174.662 1672.95 390.664ZM-370.146 -363.511C-430.329 -200.473 -85.6624 76.9335 399.688 256.093C885.039 435.252 1327.28 448.321 1387.46 285.282C1447.65 122.244 1102.98 -155.163 617.631 -334.322C132.28 -513.482 -309.963 -526.55 -370.146 -363.511Z" fill="#2BFFFF" fill-opacity="0.4"/>
</g>
<path d="M567.921 546.826H878.869M77.4712 18.671L77.4711 655.303M118.931 18.671L118.931 655.303M160.391 18.671L160.391 655.303M201.85 18.671L201.85 655.303M243.31 18.671L243.31 655.303M284.77 18.671L284.77 655.303M326.23 18.671L326.23 655.303M367.689 18.671L367.689 655.303M409.149 18.671L409.149 655.303M77 629.962H1362.25M450.609 18.671L450.609 655.303M77 590.839H1362.25M492.069 18.671L492.069 655.303M77 551.717H1362.25M533.528 18.671L533.528 655.303M77 512.594H1362.25M574.988 18.671L574.988 655.303M77 473.471H1362.25M616.448 18.671L616.448 655.303M77 434.349H1362.25M657.908 18.671L657.907 655.303M77 395.226H1362.25M699.367 18.671L699.367 655.303M77 356.104H1362.25M740.827 18.671L740.827 655.303M77 316.981H1362.25M782.287 18.671L782.287 655.303M77 277.858H1362.25M823.747 18.671L823.746 655.303M77 238.736H1362.25M865.206 18.671L865.206 655.303M77 199.613H1362.25M906.666 18.671L906.666 655.303M77 160.49H1362.25M948.126 18.671L948.126 655.303M77 121.368H1362.25M989.585 18.671L989.585 655.303M77 82.2452H1362.25M1031.05 18.671L1031.05 655.303M77 43.1226H1362.25M1072.5 18.671V655.303M77 4L1362.25 4M1113.96 18.671V655.303M1155.42 18.671V655.303M1196.88 18.671V655.303M1238.34 18.671V655.303M1279.8 18.671V655.303M1321.26 18.671V655.303M1362.72 18.671V655.303" stroke="url(#paint0_radial_2002_1517)" stroke-width="0.888544"/>
</g>
<defs>
<filter id="filter0_f_2002_1517" x="-928.668" y="-884.216" width="2874.65" height="1690.2" filterUnits="userSpaceOnUse" color-interpolation-filters="sRGB">
<feFlood flood-opacity="0" result="BackgroundImageFix"/>
<feBlend mode="normal" in="SourceGraphic" in2="BackgroundImageFix" result="shape"/>
<feGaussianBlur stdDeviation="132" result="effect1_foregroundBlur_2002_1517"/>
</filter>
<radialGradient id="paint0_radial_2002_1517" cx="0" cy="0" r="1" gradientUnits="userSpaceOnUse" gradientTransform="translate(719.862 291) rotate(90) scale(364.303 719.163)">
<stop stop-color="white" stop-opacity="0.12"/>
<stop offset="0.6" stop-color="white" stop-opacity="0"/>
</radialGradient>
<clipPath id="clip0_2002_1517">
<rect width="1440" height="660" fill="white"/>
</clipPath>
</defs>
</svg>
